<svg id="Layer_1" data-name="Layer 1" xmlns="http://www.w3.org/2000/svg" viewBox="0 0 1024 1024">
  <rect width="1024" height="1024" style="fill: #002d5b"/>
  <path d="M469.74,593h-131L312,676.09A6.16,6.16,0,0,1,305.3,681H239.1c-3.87,0-4.93-2.11-3.87-6.34L348.61,349.32c1.06-3.53,2.11-6.69,3.52-10.92a122.91,122.91,0,0,0,2.12-22.89,3.47,3.47,0,0,1,2.81-3.87h91.2c2.82,0,4.23,1.05,4.58,2.81L581.37,675.39c1.06,3.87,0,5.63-3.52,5.63h-73.6a5.32,5.32,0,0,1-5.63-3.87ZM359.18,522.92h89.44c-2.12-7.4-4.93-16.2-8.1-25.36-3.17-9.5-6.34-19.72-9.51-30.28-3.52-10.92-6.69-21.48-10.21-32.4s-6.69-21.12-9.51-31.34c-2.82-9.86-5.28-19-7.75-27.46h-.7a432.42,432.42,0,0,1-12,45.42c-5.28,16.9-10.57,34.51-16.2,52.12-4.93,18-10.21,34.51-15.49,49.3Zm259.87-123.6h61.62a7.93,7.93,0,0,1,7.4,5.63,39.79,39.79,0,0,1,2.81,9.16c.71,3.52,1.41,7.39,1.76,10.91.36,3.88.71,8.1.71,12.68A130.93,130.93,0,0,1,731,407.42a97.36,97.36,0,0,1,50.35-12.68,4.39,4.39,0,0,1,4.93,3.87v70.08c0,2.81-1.76,3.87-5.63,3.87A132,132,0,0,0,745.46,475a145.15,145.15,0,0,0-29.58,9.5c-8.1,3.88-16.9,8.1-21.12,13V676.09c0,3.52-1.41,4.93-4.58,4.93H624a4.88,4.88,0,0,1-5.64-4.22V481.72c0-8.45,0-17.26-.35-26.41s-.35-18.31-.7-27.47c-.36-8.1-1.06-16.55-2.12-24.65a3.24,3.24,0,0,1,2.47-3.87Z" style="fill: #9cf"/>
</svg>
